/* XPM */
static char *result[] = {
/* columns rows colors chars-per-pixel */
"64 62 5 1 ",
"  c #3D3518",
". c #70602D",
"X c #7D6D31",
"o c #494A4A",
"O c #8C7838",
/* pixels */
"................................................................",
"................................................................",
"..OOOOOOOOOOOOOOOOOOOOOOOOOOOOOOOOOOOOOOOOOOOOOOOOOOOOOOOOOOOO..",
"..OOOOOOOOOOOOOOOOOOOOOOOOOOOOOOOOOOOOOOOOOOOOOOOOOOOOOOOOOOOO..",
"..OOOOOOOOOOOOOOOOOOOOOOOOOOOOOOOOOOOOOOOOOOOOOOOOOOOOOOOOOOOO..",
"..OOO......................................................OOO..",
"..OOO......................................................OOO..",
"..OOO..  XXX     XX     XX     XX     XX     XX     XXX  ..OOO..",
"..OOO..  XXX     XX     XX     XX     XX     XX     XXX  ..OOO..",
"..OOO..  XXX     XX     XX     XX     XX     XX     XXX  ..OOO..",
"..OOO..  XXX     XX     XX     XX     XX     XX     XXX  ..OOO..",
"..OOO..  XXX     XX     XX     XX     XX     XX     XXX  ..OOO..",
"..OOO..  XXX     XX     XX     XX     XX     XX     XXX  ..OOO..",
"..OOO..  XXX     XX     XX     XX     XX     XX     XXX  ..OOO..",
"..OOO..  XXX     XX     XX     XX     XX     XX     XXX  ..OOO..",
"..OOO..  XXX     XX     XX     XX     XX     XX     XXX  ..OOO..",
"..OOO..  XXX     XX     XX     XX     XX     XX     XXX  ..OOO..",
"..OOO..  XXX     XX     XX     XX     XX     XX     XXX  ..OOO..",
"..OOO..  XXX     XX     XX     XX     XX     XX     XXX  ..OOO..",
"..OOO..  XXX     XX     XX     XX     XX     XX     XXX  ..OOO..",
"..OOO..  XXX     XX     XX     XX     XX     XX     XXX  ..OOO..",
"..OOO..  XXX     XX     XX     XX     XX     XX     XXX  ..OOO..",
"..OOO..  XXX     XX     XX     XX     XX     XX     XXX  ..OOO..",
"..OOO..  XXX     XX     XX     XX     XX     XX     XXX  ..OOO..",
"..OOO..  XXX     oo     XX     XX     XX     XX     XXX  ..OOO..",
"..OOO..  XXX     oo     XX     XX     XX     XX     XXX  ..OOO..",
"..OOO..  XXX  oooXX     XX     XX     XX     XX     XXX  ..OOO..",
"..OOO..  XXX  oooXX     XX     XX     XX     XX     XXX  ..OOO..",
"..OOO..  XXX  oooXX     XX     XX     XX     XX     XXX  ..OOO..",
"..OOO..  XXXoo   XX     XX     XX     XX     XX     XXX  ..OOO..",
"..OOO..  XXXoo   XX     XX     XX     XX     XX     XXX  ..OOO..",
"..OOO..  XXXoo   XX     XX     XX     XX     XX     XXX  ..OOO..",
"..OOO..  XXXoo   XX     XX     XX     XX     XX     XXX  ..OOO..",
"..OOO..  XXX  oooXX     XX     XX     XX     XX     XXX  ..OOO..",
"..OOO..  XXX  oooXX     XX     XX     XX     XX     XXX  ..OOO..",
"..OOO..  XXX  oooXX     XX     XX     XX     XX     XXX  ..OOO..",
"..OOO..  XXX     oo     XX     XX     XX     XX     XXX  ..OOO..",
"..OOO..  XXX     oo     XX     XX     XX     XX     XXX  ..OOO..",
"..OOO..  XXX     XX     XX     XX     XX     XX     XXX  ..OOO..",
"..OOO..  XXX     XX     XX     XX     XX     XX     XXX  ..OOO..",
"..OOO..  XXX     XX     XX     XX     XX     XX     XXX  ..OOO..",
"..OOO..  XXX     XX     XX     XX     XX     XX     XXX  ..OOO..",
"..OOO..  XXX     XX     XX     XX     XX     XX     XXX  ..OOO..",
"..OOO..  XXX     XX     XX     XX     XX     XX     XXX  ..OOO..",
"..OOO..  XXX     XX     XX     XX     XX     XX     XXX  ..OOO..",
"..OOO..  XXX     XX     XX     XX     XX     XX     XXX  ..OOO..",
"..OOO..  XXX     XX     XX     XX     XX     XX     XXX  ..OOO..",
"..OOO..  XXX     XX     XX     XX     XX     XX     XXX  ..OOO..",
"..OOO..  XXX     XX     XX     XX     XX     XX     XXX  ..OOO..",
"..OOO..  XXX     XX     XX     XX     XX     XX     XXX  ..OOO..",
"..OOO..  XXX     XX     XX     XX     XX     XX     XXX  ..OOO..",
"..OOO..  XXX     XX     XX     XX     XX     XX     XXX  ..OOO..",
"..OOO..  XXX     XX     XX     XX     XX     XX     XXX  ..OOO..",
"..OOO..  XXX     XX     XX     XX     XX     XX     XXX  ..OOO..",
"..OOO..  XXX     XX     XX     XX     XX     XX     XXX  ..OOO..",
"..OOO......................................................OOO..",
"..OOO......................................................OOO..",
"..OOOOOOOOOOOOOOOOOOOOOOOOOOOOOOOOOOOOOOOOOOOOOOOOOOOOOOOOOOOO..",
"..OOOOOOOOOOOOOOOOOOOOOOOOOOOOOOOOOOOOOOOOOOOOOOOOOOOOOOOOOOOO..",
"..OOOOOOOOOOOOOOOOOOOOOOOOOOOOOOOOOOOOOOOOOOOOOOOOOOOOOOOOOOOO..",
"................................................................",
"................................................................"
};
