/* XPM */
static char *result[] = {
/* columns rows colors chars-per-pixel */
"64 64 8 1 ",
"  c black",
". c #59413E",
"X c #514047",
"o c #77514C",
"O c #8D5D57",
"+ c #A19B36",
"@ c gray68",
"# c white",
/* pixels */
"XXXXooooooooooooooooooooXXXXXXXXXXXXooooooooooooooooooooXXXXXXXX",
"XXXXooooooooooooooooooooXXXXXXXXXXXXooooooooooooooooooooXXXXXXXX",
"XXXXooooooooooooooooooooXXXXXXXXXXXXooooooooooooooooooooXXXXXXXX",
"XXXXooooooooooooooooooooXXXXXXXXXXXXooooooooooooooooooooXXXXXXXX",
"ooooooooooooooooooooooooOOOOXXXXooooooooooooooooooooooooOOOOXXXX",
"ooooooooooooooooooooooooOOOOXXXXooooooooooooooooooooooooOOOOXXXX",
"ooooooooooooooooooooooooOOOOXXXXooooooooooooooooooooooooOOOOXXXX",
"ooooooooooooooooooooooooOOOOXXXXooooooooooooooooooooooooOOOOXXXX",
"ooooooooooooooooooooooooOOOOXXXXooooooooooooooooooooooooOOOOXXXX",
"ooooooooooooooooooooooooOOOOXXXXooooooooooooooooooooooooOOOOXXXX",
"ooooooooooooooooooooooooOOOOXXXXooooooooooooooooooooooooOOOOXXXX",
"ooooooooooooooooooooooooOOOOXXXXooooooooooooooooooooooooOOOOXXXX",
"ooooooooooooooooooooooooOOOOXXXXooooooooooooooooooooooooOOOOXXXX",
"ooooooooooooooooooooooooOOOOXXXXooooooooooooooooooooooooOOOOXXXX",
"ooooooooooooooooooooooooOOOOXXXXooooooooooooooooooooooooOOOOXXXX",
"ooooooooooooooooooooooooOOOOXXXXooooooooooooooooooooooooOOOOXXXX",
"oooooooooooooooo++++++++OOOOXXXXooooooooooooooooooooooooOOOOXXXX",
"oooooooooooooooo++++++++OOOOXXXXooooooooooooooooooooooooOOOOXXXX",
"oooooooooooooooo++++++++OOOOXXXXooooooooooooooooooooooooOOOOXXXX",
"oooooooooooooooo++++++++OOOOXXXXooooooooooooooooooooooooOOOOXXXX",
"oooooooooooo++++        ++++XXXXooooooooooooooooooooOOOOOOOOXXXX",
"oooooooooooo++++        ++++XXXXooooooooooooooooooooOOOOOOOOXXXX",
"oooooooooooo++++        ++++XXXXooooooooooooooooooooOOOOOOOOXXXX",
"oooooooooooo++++        ++++XXXXooooooooooooooooooooOOOOOOOOXXXX",
"....OOOO++++    ########    ++++++++++++++++++++++++++++++++XXXX",
"....OOOO++++    ########    ++++++++++++++++++++++++++++++++XXXX",
"....OOOO++++    ########    ++++++++++++++++++++++++++++++++XXXX",
"....OOOO++++    ########    ++++++++++++++++++++++++++++++++XXXX",
"XXXX++++    ####        ####                                ++++",
"XXXX++++    ####        ####                                ++++",
"XXXX++++    ####        ####                                ++++",
"XXXX++++    ####        ####                                ++++",
"XXXX++++    @@@@        @@@@############################    ++++",
"XXXX++++    @@@@        @@@@############################    ++++",
"XXXX++++    @@@@        @@@@############################    ++++",
"XXXX++++    @@@@        @@@@############################    ++++",
"oooo++++    @@@@        @@@@                ####    ####    ++++",
"oooo++++    @@@@        @@@@                ####    ####    ++++",
"oooo++++    @@@@        @@@@                ####    ####    ++++",
"oooo++++    @@@@        @@@@                ####    ####    ++++",
"oooooooo++++    @@@@@@@@    ++++++++++++                    ++++",
"oooooooo++++    @@@@@@@@    ++++++++++++                    ++++",
"oooooooo++++    @@@@@@@@    ++++++++++++                    ++++",
"oooooooo++++    @@@@@@@@    ++++++++++++                    ++++",
"oooooooooooo++++        ++++XXXXoooooooo++++++++++++++++++++XXXX",
"oooooooooooo++++        ++++XXXXoooooooo++++++++++++++++++++XXXX",
"oooooooooooo++++        ++++XXXXoooooooo++++++++++++++++++++XXXX",
"oooooooooooo++++        ++++XXXXoooooooo++++++++++++++++++++XXXX",
"oooooooooooooooo++++++++OOOOXXXXooooooooooooooooooooooooOOOOXXXX",
"oooooooooooooooo++++++++OOOOXXXXooooooooooooooooooooooooOOOOXXXX",
"oooooooooooooooo++++++++OOOOXXXXooooooooooooooooooooooooOOOOXXXX",
"oooooooooooooooo++++++++OOOOXXXXooooooooooooooooooooooooOOOOXXXX",
"ooooooooooooooooooooOOOOOOOOXXXXooooooooooooooooooooOOOOOOOOXXXX",
"ooooooooooooooooooooOOOOOOOOXXXXooooooooooooooooooooOOOOOOOOXXXX",
"ooooooooooooooooooooOOOOOOOOXXXXooooooooooooooooooooOOOOOOOOXXXX",
"ooooooooooooooooooooOOOOOOOOXXXXooooooooooooooooooooOOOOOOOOXXXX",
"....OOOOOOOOOOOOOOOOOOOO....XXXX....OOOOOOOOOOOOOOOOOOOO....XXXX",
"....OOOOOOOOOOOOOOOOOOOO....XXXX....OOOOOOOOOOOOOOOOOOOO....XXXX",
"....OOOOOOOOOOOOOOOOOOOO....XXXX....OOOOOOOOOOOOOOOOOOOO....XXXX",
"....OOOOOOOOOOOOOOOOOOOO....XXXX....OOOOOOOOOOOOOOOOOOOO....XXXX",
"XXXX....................XXXXXXXXXXXX....................XXXXXXXX",
"XXXX....................XXXXXXXXXXXX....................XXXXXXXX",
"XXXX....................XXXXXXXXXXXX....................XXXXXXXX",
"XXXX....................XXXXXXXXXXXX....................XXXXXXXX"
};
