/* XPM */
static char *result[] = {
/* columns rows colors chars-per-pixel */
"64 64 7 1 ",
"  c black",
". c gray21",
"X c gray27",
"o c gray35",
"O c gray42",
"+ c gray47",
"@ c gray64",
/* pixels */
"                                                                ",
"                                                                ",
"                                                                ",
"                                                                ",
"    @@@@@@@@@@@@@@@@@@@@@@@@@@@@@@@@@@@@@@@@@@@@@@@@@@@@@@@@    ",
"    @@@@@@@@@@@@@@@@@@@@@@@@@@@@@@@@@@@@@@@@@@@@@@@@@@@@@@@@    ",
"    @@@@@@@@@@@@@@@@@@@@@@@@@@@@@@@@@@@@@@@@@@@@@@@@@@@@@@@@    ",
"    @@@@@@@@@@@@@@@@@@@@@@@@@@@@@@@@@@@@@@@@@@@@@@@@@@@@@@@@    ",
"    @@@@................XXXXXXXXXXXXXXXXXXXXXXXXXXXXXXXX@@@@    ",
"    @@@@................XXXXXXXXXXXXXXXXXXXXXXXXXXXXXXXX@@@@    ",
"    @@@@................XXXXXXXXXXXXXXXXXXXXXXXXXXXXXXXX@@@@    ",
"    @@@@................XXXXXXXXXXXXXXXXXXXXXXXXXXXXXXXX@@@@    ",
"    @@@@........XXXXXXXXXXXXXXXXXXXXXXXX++++++++++++XXXX@@@@    ",
"    @@@@........XXXXXXXXXXXXXXXXXXXXXXXX++++++++++++XXXX@@@@    ",
"    @@@@........XXXXXXXXXXXXXXXXXXXXXXXX++++++++++++XXXX@@@@    ",
"    @@@@........XXXXXXXXXXXXXXXXXXXXXXXX++++++++++++XXXX@@@@    ",
"    @@@@....XXXXXXXXXXXXXXXXXXXXXXXXXXXX++++++++++++XXXX@@@@    ",
"    @@@@....XXXXXXXXXXXXXXXXXXXXXXXXXXXX++++++++++++XXXX@@@@    ",
"    @@@@....XXXXXXXXXXXXXXXXXXXXXXXXXXXX++++++++++++XXXX@@@@    ",
"    @@@@....XXXXXXXXXXXXXXXXXXXXXXXXXXXX++++++++++++XXXX@@@@    ",
"    @@@@....XXXXXXXXXXXXOOOOOOOOOOOOXXXX++++++++++++XXXX@@@@    ",
"    @@@@....XXXXXXXXXXXXOOOOOOOOOOOOXXXX++++++++++++XXXX@@@@    ",
"    @@@@....XXXXXXXXXXXXOOOOOOOOOOOOXXXX++++++++++++XXXX@@@@    ",
"    @@@@....XXXXXXXXXXXXOOOOOOOOOOOOXXXX++++++++++++XXXX@@@@    ",
"    @@@@....XXXXXXXXXXXXOOOOOOOOOOOOXXXX++++++++++++XXXX@@@@    ",
"    @@@@....XXXXXXXXXXXXOOOOOOOOOOOOXXXX++++++++++++XXXX@@@@    ",
"    @@@@....XXXXXXXXXXXXOOOOOOOOOOOOXXXX++++++++++++XXXX@@@@    ",
"    @@@@....XXXXXXXXXXXXOOOOOOOOOOOOXXXX++++++++++++XXXX@@@@    ",
"    @@@@ooooooooooooXXXXOOOOOOOOOOOOXXXX++++++++++++XXXX@@@@    ",
"    @@@@ooooooooooooXXXXOOOOOOOOOOOOXXXX++++++++++++XXXX@@@@    ",
"    @@@@ooooooooooooXXXXOOOOOOOOOOOOXXXX++++++++++++XXXX@@@@    ",
"    @@@@ooooooooooooXXXXOOOOOOOOOOOOXXXX++++++++++++XXXX@@@@    ",
"    @@@@ooooooooooooXXXXOOOOOOOOOOOOXXXX++++++++++++XXXX@@@@    ",
"    @@@@ooooooooooooXXXXOOOOOOOOOOOOXXXX++++++++++++XXXX@@@@    ",
"    @@@@ooooooooooooXXXXOOOOOOOOOOOOXXXX++++++++++++XXXX@@@@    ",
"    @@@@ooooooooooooXXXXOOOOOOOOOOOOXXXX++++++++++++XXXX@@@@    ",
"    @@@@ooooooooooooXXXXOOOOOOOOOOOOXXXX++++++++++++XXXX@@@@    ",
"    @@@@ooooooooooooXXXXOOOOOOOOOOOOXXXX++++++++++++XXXX@@@@    ",
"    @@@@ooooooooooooXXXXOOOOOOOOOOOOXXXX++++++++++++XXXX@@@@    ",
"    @@@@ooooooooooooXXXXOOOOOOOOOOOOXXXX++++++++++++XXXX@@@@    ",
"    @@@@ooooooooooooXXXXOOOOOOOOOOOOXXXX++++++++++++XXXX@@@@    ",
"    @@@@ooooooooooooXXXXOOOOOOOOOOOOXXXX++++++++++++XXXX@@@@    ",
"    @@@@ooooooooooooXXXXOOOOOOOOOOOOXXXX++++++++++++XXXX@@@@    ",
"    @@@@ooooooooooooXXXXOOOOOOOOOOOOXXXX++++++++++++XXXX@@@@    ",
"    @@@@ooooooooooooXXXXOOOOOOOOOOOOXXXX++++++++++++XXXX@@@@    ",
"    @@@@ooooooooooooXXXXOOOOOOOOOOOOXXXX++++++++++++XXXX@@@@    ",
"    @@@@ooooooooooooXXXXOOOOOOOOOOOOXXXX++++++++++++XXXX@@@@    ",
"    @@@@ooooooooooooXXXXOOOOOOOOOOOOXXXX++++++++++++XXXX@@@@    ",
"    @@@@ooooooooooooXXXXOOOOOOOOOOOOXXXX++++++++++++XXXX@@@@    ",
"    @@@@ooooooooooooXXXXOOOOOOOOOOOOXXXX++++++++++++XXXX@@@@    ",
"    @@@@ooooooooooooXXXXOOOOOOOOOOOOXXXX++++++++++++XXXX@@@@    ",
"    @@@@ooooooooooooXXXXOOOOOOOOOOOOXXXX++++++++++++XXXX@@@@    ",
"    @@@@ooooooooooooXXXXOOOOOOOOOOOOXXXX++++++++++++XXXX@@@@    ",
"    @@@@ooooooooooooXXXXOOOOOOOOOOOOXXXX++++++++++++XXXX@@@@    ",
"    @@@@ooooooooooooXXXXOOOOOOOOOOOOXXXX++++++++++++XXXX@@@@    ",
"    @@@@ooooooooooooXXXXOOOOOOOOOOOOXXXX++++++++++++XXXX@@@@    ",
"    @@@@@@@@@@@@@@@@@@@@@@@@@@@@@@@@@@@@@@@@@@@@@@@@@@@@@@@@    ",
"    @@@@@@@@@@@@@@@@@@@@@@@@@@@@@@@@@@@@@@@@@@@@@@@@@@@@@@@@    ",
"    @@@@@@@@@@@@@@@@@@@@@@@@@@@@@@@@@@@@@@@@@@@@@@@@@@@@@@@@    ",
"    @@@@@@@@@@@@@@@@@@@@@@@@@@@@@@@@@@@@@@@@@@@@@@@@@@@@@@@@    ",
"                                                                ",
"                                                                ",
"                                                                ",
"                                                                "
};
